<svg xmlns="http://www.w3.org/2000/svg" viewBox="0 0 64 45.26"><defs><style>.cls-1{fill:#fff;}.cls-2{fill:#ef5141;}</style></defs><g id="Layer_2" data-name="Layer 2"><g id="Layer_1-2" data-name="Layer 1"><path class="cls-1" d="M22.64,45.26a22.57,22.57,0,1,1,9.79-2.21A22.66,22.66,0,0,1,22.64,45.26Zm0-44.34A21.64,21.64,0,1,0,32,3,21.74,21.74,0,0,0,22.64.92Z"/><path class="cls-2" d="M64,22.64a22.21,22.21,0,0,1-31.77,20,22.21,22.21,0,0,0,0-40A22.21,22.21,0,0,1,64,22.64Z"/><path class="cls-2" d="M40.4,32.23c-1.64-2.4-4.07-5.27-4-8.22.54-.56,1.76-.24,2.37-.73a6.76,6.76,0,0,0,2.1-4.34c-1.78-1-1.87-2.88-3.5-4-1.41-1-2.09-1.23-1.21-3.2a2.64,2.64,0,0,0-1.73.56c-.33.24-.73,1.07-1.23.67-.29-.24-.3-.83-.29-1.17a7.1,7.1,0,0,0-.2-1.18c-6.94,5.91-16.45,19.64-7,27.2C27.77,40.57,33.12,44.68,36,41a26.15,26.15,0,0,0,7.17-6.4C42,34.16,41.24,33.06,40.4,32.23Z"/><path class="cls-1" d="M34.89,17.82c.65.19,1.26.45,1.89.65l.93.34.47.17a1.19,1.19,0,0,0,.22.08.07.07,0,0,0,.07,0s-.06-.07-.07,0,.09,0,.11,0,0,.11-.1.12a1.22,1.22,0,0,1-.27,0l-.5-.08a8.48,8.48,0,0,1-1-.26A5.87,5.87,0,0,1,34.89,17.82Z"/><path class="cls-1" d="M35.56,20.48,37.82,20A2,2,0,0,1,35.56,20.48Z"/><path class="cls-1" d="M32.23,43.15l-.2-.1A22.76,22.76,0,0,1,19.2,22.64,22.48,22.48,0,0,1,32,2.21l.2-.1.2.1A22.5,22.5,0,0,1,45.26,22.64,22.78,22.78,0,0,1,32.43,43.05Zm0-40A21.58,21.58,0,0,0,20.11,22.64,21.85,21.85,0,0,0,32.23,42.13,21.85,21.85,0,0,0,44.35,22.64,21.58,21.58,0,0,0,32.23,3.13Z"/></g></g></svg>